<mxfile host="app.diagrams.net" modified="2022-06-24T03:58:29.952Z" agent="5.0 (Windows NT 10.0; Win64; x64) AppleWebKit/537.36 (KHTML, like Gecko) Chrome/100.0.4896.160 YaBrowser/22.5.2.615 Yowser/2.5 Safari/537.36" etag="WwM7-suldpFekjeO-VYp" version="20.0.3" type="github">
  <diagram id="9NIZqFnd5kz3xPpbflcG" name="Page-1">
    <mxGraphModel dx="1384" dy="1915" grid="1" gridSize="10" guides="1" tooltips="1" connect="1" arrows="1" fold="1" page="1" pageScale="1" pageWidth="827" pageHeight="1169" math="0" shadow="0">
      <root>
        <mxCell id="0" />
        <mxCell id="1" parent="0" />
        <mxCell id="y1c-AxG3RpCOzJqKjuoB-4" value="1" style="edgeStyle=orthogonalEdgeStyle;rounded=0;orthogonalLoop=1;jettySize=auto;html=1;" edge="1" parent="1" source="y1c-AxG3RpCOzJqKjuoB-1" target="y1c-AxG3RpCOzJqKjuoB-3">
          <mxGeometry relative="1" as="geometry" />
        </mxCell>
        <mxCell id="y1c-AxG3RpCOzJqKjuoB-1" value="generate(int source = 1, int target = 5, int c = 1, int d = 2, String path)" style="rounded=0;whiteSpace=wrap;html=1;" vertex="1" parent="1">
          <mxGeometry x="160" y="40" width="400" height="60" as="geometry" />
        </mxCell>
        <mxCell id="y1c-AxG3RpCOzJqKjuoB-2" value="&lt;pre style=&quot;background-color:#2b2b2b;color:#a9b7c6;font-family:&#39;JetBrains Mono&#39;,monospace;font-size:9,8pt;&quot;&gt;    &lt;span style=&quot;color:#cc7832;&quot;&gt;public static void &lt;/span&gt;&lt;span style=&quot;color:#ffc66d;&quot;&gt;generate&lt;/span&gt;(&lt;span style=&quot;color:#cc7832;&quot;&gt;int &lt;/span&gt;source&lt;span style=&quot;color:#cc7832;&quot;&gt;, int &lt;/span&gt;target&lt;span style=&quot;color:#cc7832;&quot;&gt;, int &lt;/span&gt;c&lt;span style=&quot;color:#cc7832;&quot;&gt;, int &lt;/span&gt;d&lt;span style=&quot;color:#cc7832;&quot;&gt;, &lt;/span&gt;String path) {&lt;br&gt;        &lt;span style=&quot;color:#cc7832;&quot;&gt;if &lt;/span&gt;(source &amp;gt; target){&lt;br&gt;&lt;span style=&quot;color:#808080;&quot;&gt;//            System.out.println(path);&lt;br&gt;&lt;/span&gt;&lt;span style=&quot;color:#808080;&quot;&gt;            &lt;/span&gt;&lt;span style=&quot;color:#cc7832;&quot;&gt;return;&lt;br&gt;&lt;/span&gt;&lt;span style=&quot;color:#cc7832;&quot;&gt;        &lt;/span&gt;}&lt;br&gt;        &lt;span style=&quot;color:#cc7832;&quot;&gt;if &lt;/span&gt;(source == target) {&lt;br&gt;            System.&lt;span style=&quot;color:#9876aa;font-style:italic;&quot;&gt;out&lt;/span&gt;.println(path)&lt;span style=&quot;color:#cc7832;&quot;&gt;;&lt;br&gt;&lt;/span&gt;&lt;span style=&quot;color:#cc7832;&quot;&gt;            return;&lt;br&gt;&lt;/span&gt;&lt;span style=&quot;color:#cc7832;&quot;&gt;        &lt;/span&gt;}&lt;br&gt;&lt;br&gt;        &lt;span style=&quot;font-style:italic;&quot;&gt;generate&lt;/span&gt;(source + c&lt;span style=&quot;color:#cc7832;&quot;&gt;, &lt;/span&gt;target&lt;span style=&quot;color:#cc7832;&quot;&gt;, &lt;/span&gt;c&lt;span style=&quot;color:#cc7832;&quot;&gt;, &lt;/span&gt;d&lt;span style=&quot;color:#cc7832;&quot;&gt;, &lt;/span&gt;path + &lt;span style=&quot;color:#6a8759;&quot;&gt;&quot; k1&quot;&lt;/span&gt;)&lt;span style=&quot;color:#cc7832;&quot;&gt;;&lt;br&gt;&lt;/span&gt;&lt;span style=&quot;color:#cc7832;&quot;&gt;        &lt;/span&gt;&lt;span style=&quot;font-style:italic;&quot;&gt;generate&lt;/span&gt;(source * d&lt;span style=&quot;color:#cc7832;&quot;&gt;, &lt;/span&gt;target&lt;span style=&quot;color:#cc7832;&quot;&gt;, &lt;/span&gt;c&lt;span style=&quot;color:#cc7832;&quot;&gt;, &lt;/span&gt;d&lt;span style=&quot;color:#cc7832;&quot;&gt;, &lt;/span&gt;path + &lt;span style=&quot;color:#6a8759;&quot;&gt;&quot; k2&quot;&lt;/span&gt;)&lt;span style=&quot;color:#cc7832;&quot;&gt;;&lt;br&gt;&lt;/span&gt;&lt;span style=&quot;color:#cc7832;&quot;&gt;&lt;br&gt;&lt;/span&gt;&lt;span style=&quot;color:#cc7832;&quot;&gt;&lt;br&gt;&lt;/span&gt;&lt;span style=&quot;color:#cc7832;&quot;&gt;    &lt;/span&gt;}&lt;br&gt;}&lt;/pre&gt;" style="text;whiteSpace=wrap;html=1;" vertex="1" parent="1">
          <mxGeometry x="420" y="-230" width="560" height="280" as="geometry" />
        </mxCell>
        <mxCell id="y1c-AxG3RpCOzJqKjuoB-7" value="2" style="edgeStyle=orthogonalEdgeStyle;rounded=0;orthogonalLoop=1;jettySize=auto;html=1;" edge="1" parent="1" source="y1c-AxG3RpCOzJqKjuoB-3" target="y1c-AxG3RpCOzJqKjuoB-6">
          <mxGeometry relative="1" as="geometry" />
        </mxCell>
        <mxCell id="y1c-AxG3RpCOzJqKjuoB-3" value="Суммирование&lt;br&gt;generate(int source = 1+1, &lt;br&gt;target = 5, &lt;br&gt;&amp;nbsp;path = k1" style="rounded=0;whiteSpace=wrap;html=1;" vertex="1" parent="1">
          <mxGeometry x="120" y="160" width="160" height="70" as="geometry" />
        </mxCell>
        <mxCell id="y1c-AxG3RpCOzJqKjuoB-5" value="Уровень 1" style="text;html=1;align=center;verticalAlign=middle;resizable=0;points=[];autosize=1;strokeColor=none;fillColor=none;" vertex="1" parent="1">
          <mxGeometry x="30" y="175" width="80" height="30" as="geometry" />
        </mxCell>
        <mxCell id="y1c-AxG3RpCOzJqKjuoB-10" value="3" style="edgeStyle=orthogonalEdgeStyle;rounded=0;orthogonalLoop=1;jettySize=auto;html=1;" edge="1" parent="1" source="y1c-AxG3RpCOzJqKjuoB-6" target="y1c-AxG3RpCOzJqKjuoB-9">
          <mxGeometry relative="1" as="geometry" />
        </mxCell>
        <mxCell id="y1c-AxG3RpCOzJqKjuoB-6" value="Суммирование&lt;br&gt;generate(int source = 2+1, &lt;br&gt;target = 5, &lt;br&gt;&amp;nbsp;path = k1 к1" style="rounded=0;whiteSpace=wrap;html=1;" vertex="1" parent="1">
          <mxGeometry x="120" y="280" width="160" height="70" as="geometry" />
        </mxCell>
        <mxCell id="y1c-AxG3RpCOzJqKjuoB-8" value="Уровень 2" style="text;html=1;align=center;verticalAlign=middle;resizable=0;points=[];autosize=1;strokeColor=none;fillColor=none;" vertex="1" parent="1">
          <mxGeometry x="30" y="290" width="80" height="30" as="geometry" />
        </mxCell>
        <mxCell id="y1c-AxG3RpCOzJqKjuoB-13" value="4" style="edgeStyle=orthogonalEdgeStyle;rounded=0;orthogonalLoop=1;jettySize=auto;html=1;" edge="1" parent="1" source="y1c-AxG3RpCOzJqKjuoB-9" target="y1c-AxG3RpCOzJqKjuoB-12">
          <mxGeometry relative="1" as="geometry" />
        </mxCell>
        <mxCell id="y1c-AxG3RpCOzJqKjuoB-9" value="Суммирование&lt;br&gt;generate(int source = 3+1, &lt;br&gt;target = 5, &lt;br&gt;&amp;nbsp;path = k1 к1 к1" style="rounded=0;whiteSpace=wrap;html=1;" vertex="1" parent="1">
          <mxGeometry x="120" y="400" width="160" height="70" as="geometry" />
        </mxCell>
        <mxCell id="y1c-AxG3RpCOzJqKjuoB-11" value="Уровень 3" style="text;html=1;align=center;verticalAlign=middle;resizable=0;points=[];autosize=1;strokeColor=none;fillColor=none;" vertex="1" parent="1">
          <mxGeometry x="30" y="420" width="80" height="30" as="geometry" />
        </mxCell>
        <mxCell id="y1c-AxG3RpCOzJqKjuoB-16" value="5&lt;br&gt;" style="edgeStyle=orthogonalEdgeStyle;rounded=0;orthogonalLoop=1;jettySize=auto;html=1;entryX=0.5;entryY=0;entryDx=0;entryDy=0;" edge="1" parent="1" source="y1c-AxG3RpCOzJqKjuoB-12" target="y1c-AxG3RpCOzJqKjuoB-23">
          <mxGeometry relative="1" as="geometry">
            <mxPoint x="200" y="790" as="targetPoint" />
          </mxGeometry>
        </mxCell>
        <mxCell id="y1c-AxG3RpCOzJqKjuoB-12" value="Суммирование&lt;br&gt;generate(int source = 4+1, &lt;br&gt;target = 5, &lt;br&gt;&amp;nbsp;path = k1 к1 k1 к1&amp;nbsp;" style="rounded=0;whiteSpace=wrap;html=1;" vertex="1" parent="1">
          <mxGeometry x="120" y="520" width="160" height="70" as="geometry" />
        </mxCell>
        <mxCell id="y1c-AxG3RpCOzJqKjuoB-14" value="Уровень 4" style="text;html=1;align=center;verticalAlign=middle;resizable=0;points=[];autosize=1;strokeColor=none;fillColor=none;" vertex="1" parent="1">
          <mxGeometry x="30" y="540" width="80" height="30" as="geometry" />
        </mxCell>
        <mxCell id="y1c-AxG3RpCOzJqKjuoB-19" value="6" style="edgeStyle=orthogonalEdgeStyle;rounded=0;orthogonalLoop=1;jettySize=auto;html=1;entryX=0;entryY=0.5;entryDx=0;entryDy=0;exitX=1;exitY=0.5;exitDx=0;exitDy=0;" edge="1" parent="1" source="y1c-AxG3RpCOzJqKjuoB-23" target="y1c-AxG3RpCOzJqKjuoB-18">
          <mxGeometry relative="1" as="geometry">
            <mxPoint x="280" y="825" as="sourcePoint" />
          </mxGeometry>
        </mxCell>
        <mxCell id="y1c-AxG3RpCOzJqKjuoB-26" value="7" style="edgeStyle=orthogonalEdgeStyle;rounded=0;orthogonalLoop=1;jettySize=auto;html=1;entryX=0.5;entryY=0;entryDx=0;entryDy=0;" edge="1" parent="1" source="y1c-AxG3RpCOzJqKjuoB-18" target="y1c-AxG3RpCOzJqKjuoB-27">
          <mxGeometry relative="1" as="geometry">
            <mxPoint x="400" y="555" as="targetPoint" />
          </mxGeometry>
        </mxCell>
        <mxCell id="y1c-AxG3RpCOzJqKjuoB-18" value="Умножение&lt;br&gt;generate(int source = 3*2,&lt;br&gt;target = 5,&lt;br&gt;&amp;nbsp;path = k1 к1 к2" style="rounded=0;whiteSpace=wrap;html=1;" vertex="1" parent="1">
          <mxGeometry x="320" y="400" width="160" height="70" as="geometry" />
        </mxCell>
        <mxCell id="y1c-AxG3RpCOzJqKjuoB-23" value="System.out.printn&lt;br&gt;(k1 к1 k1 к1)&lt;br&gt;return" style="ellipse;whiteSpace=wrap;html=1;" vertex="1" parent="1">
          <mxGeometry x="140" y="680" width="120" height="80" as="geometry" />
        </mxCell>
        <mxCell id="y1c-AxG3RpCOzJqKjuoB-29" value="8" style="edgeStyle=orthogonalEdgeStyle;rounded=0;orthogonalLoop=1;jettySize=auto;html=1;entryX=0;entryY=0.5;entryDx=0;entryDy=0;" edge="1" parent="1" source="y1c-AxG3RpCOzJqKjuoB-27" target="y1c-AxG3RpCOzJqKjuoB-28">
          <mxGeometry relative="1" as="geometry">
            <Array as="points">
              <mxPoint x="500" y="710" />
              <mxPoint x="500" y="305" />
            </Array>
          </mxGeometry>
        </mxCell>
        <mxCell id="y1c-AxG3RpCOzJqKjuoB-27" value="6&amp;gt;5&lt;br&gt;return" style="ellipse;whiteSpace=wrap;html=1;" vertex="1" parent="1">
          <mxGeometry x="340" y="670" width="120" height="80" as="geometry" />
        </mxCell>
        <mxCell id="y1c-AxG3RpCOzJqKjuoB-31" value="9" style="edgeStyle=orthogonalEdgeStyle;rounded=0;orthogonalLoop=1;jettySize=auto;html=1;" edge="1" parent="1" source="y1c-AxG3RpCOzJqKjuoB-28" target="y1c-AxG3RpCOzJqKjuoB-30">
          <mxGeometry relative="1" as="geometry" />
        </mxCell>
        <mxCell id="y1c-AxG3RpCOzJqKjuoB-28" value="Умножение&lt;br&gt;generate(int source = 2*2,&lt;br&gt;target = 5,&lt;br&gt;&amp;nbsp;path = k1 к2&amp;nbsp;" style="rounded=0;whiteSpace=wrap;html=1;" vertex="1" parent="1">
          <mxGeometry x="510" y="270" width="160" height="70" as="geometry" />
        </mxCell>
        <mxCell id="y1c-AxG3RpCOzJqKjuoB-33" value="10" style="edgeStyle=orthogonalEdgeStyle;rounded=0;orthogonalLoop=1;jettySize=auto;html=1;" edge="1" parent="1" source="y1c-AxG3RpCOzJqKjuoB-30" target="y1c-AxG3RpCOzJqKjuoB-32">
          <mxGeometry relative="1" as="geometry" />
        </mxCell>
        <mxCell id="y1c-AxG3RpCOzJqKjuoB-30" value="Суммирование&lt;br&gt;generate(int source = 4+1,&lt;br&gt;target = 5,&lt;br&gt;&amp;nbsp;path = k1 к2 к1" style="rounded=0;whiteSpace=wrap;html=1;" vertex="1" parent="1">
          <mxGeometry x="510" y="400" width="160" height="70" as="geometry" />
        </mxCell>
        <mxCell id="y1c-AxG3RpCOzJqKjuoB-35" value="11" style="edgeStyle=orthogonalEdgeStyle;rounded=0;orthogonalLoop=1;jettySize=auto;html=1;entryX=0;entryY=0.5;entryDx=0;entryDy=0;" edge="1" parent="1" source="y1c-AxG3RpCOzJqKjuoB-32" target="y1c-AxG3RpCOzJqKjuoB-34">
          <mxGeometry relative="1" as="geometry">
            <Array as="points">
              <mxPoint x="680" y="720" />
              <mxPoint x="680" y="195" />
            </Array>
          </mxGeometry>
        </mxCell>
        <mxCell id="y1c-AxG3RpCOzJqKjuoB-32" value="System.out.printn&lt;br&gt;(k1 к2 k1)&lt;br&gt;return" style="ellipse;whiteSpace=wrap;html=1;" vertex="1" parent="1">
          <mxGeometry x="530" y="680" width="120" height="80" as="geometry" />
        </mxCell>
        <mxCell id="y1c-AxG3RpCOzJqKjuoB-37" value="12" style="edgeStyle=orthogonalEdgeStyle;rounded=0;orthogonalLoop=1;jettySize=auto;html=1;entryX=0.5;entryY=0;entryDx=0;entryDy=0;" edge="1" parent="1" source="y1c-AxG3RpCOzJqKjuoB-34" target="y1c-AxG3RpCOzJqKjuoB-36">
          <mxGeometry relative="1" as="geometry" />
        </mxCell>
        <mxCell id="y1c-AxG3RpCOzJqKjuoB-34" value="Умножение&lt;br&gt;generate(int source = 1*2,&lt;br&gt;target = 5,&lt;br&gt;&amp;nbsp;path = k2&amp;nbsp;" style="rounded=0;whiteSpace=wrap;html=1;" vertex="1" parent="1">
          <mxGeometry x="690" y="160" width="160" height="70" as="geometry" />
        </mxCell>
        <mxCell id="y1c-AxG3RpCOzJqKjuoB-39" value="13" style="edgeStyle=orthogonalEdgeStyle;rounded=0;orthogonalLoop=1;jettySize=auto;html=1;" edge="1" parent="1" source="y1c-AxG3RpCOzJqKjuoB-36" target="y1c-AxG3RpCOzJqKjuoB-38">
          <mxGeometry relative="1" as="geometry" />
        </mxCell>
        <mxCell id="y1c-AxG3RpCOzJqKjuoB-36" value="Суммирование&lt;br&gt;generate(int source = 2+1,&lt;br&gt;target = 5,&lt;br&gt;&amp;nbsp;path = к2 к1" style="rounded=0;whiteSpace=wrap;html=1;" vertex="1" parent="1">
          <mxGeometry x="690" y="270" width="160" height="70" as="geometry" />
        </mxCell>
        <mxCell id="y1c-AxG3RpCOzJqKjuoB-43" value="14" style="edgeStyle=orthogonalEdgeStyle;rounded=0;orthogonalLoop=1;jettySize=auto;html=1;" edge="1" parent="1" source="y1c-AxG3RpCOzJqKjuoB-38" target="y1c-AxG3RpCOzJqKjuoB-42">
          <mxGeometry relative="1" as="geometry" />
        </mxCell>
        <mxCell id="y1c-AxG3RpCOzJqKjuoB-38" value="Суммирование&lt;br&gt;generate(int source = 3+1,&lt;br&gt;target = 5,&lt;br&gt;&amp;nbsp;path = к2 к1 к1" style="rounded=0;whiteSpace=wrap;html=1;" vertex="1" parent="1">
          <mxGeometry x="690" y="400" width="160" height="70" as="geometry" />
        </mxCell>
        <mxCell id="y1c-AxG3RpCOzJqKjuoB-48" value="16" style="edgeStyle=orthogonalEdgeStyle;rounded=0;orthogonalLoop=1;jettySize=auto;html=1;entryX=0;entryY=0.5;entryDx=0;entryDy=0;" edge="1" parent="1" source="y1c-AxG3RpCOzJqKjuoB-40" target="y1c-AxG3RpCOzJqKjuoB-45">
          <mxGeometry relative="1" as="geometry">
            <Array as="points">
              <mxPoint x="870" y="710" />
              <mxPoint x="870" y="435" />
            </Array>
          </mxGeometry>
        </mxCell>
        <mxCell id="y1c-AxG3RpCOzJqKjuoB-40" value="System.out.printn&lt;br&gt;(к2 k1 к1 к1)&lt;br&gt;return" style="ellipse;whiteSpace=wrap;html=1;" vertex="1" parent="1">
          <mxGeometry x="710" y="670" width="120" height="80" as="geometry" />
        </mxCell>
        <mxCell id="y1c-AxG3RpCOzJqKjuoB-44" value="15" style="edgeStyle=orthogonalEdgeStyle;rounded=0;orthogonalLoop=1;jettySize=auto;html=1;" edge="1" parent="1" source="y1c-AxG3RpCOzJqKjuoB-42" target="y1c-AxG3RpCOzJqKjuoB-40">
          <mxGeometry relative="1" as="geometry" />
        </mxCell>
        <mxCell id="y1c-AxG3RpCOzJqKjuoB-42" value="Суммирование&lt;br&gt;generate(int source = 4+1,&lt;br&gt;target = 5,&lt;br&gt;&amp;nbsp;path = к2 к1 к1 к1" style="rounded=0;whiteSpace=wrap;html=1;" vertex="1" parent="1">
          <mxGeometry x="690" y="515" width="160" height="70" as="geometry" />
        </mxCell>
        <mxCell id="y1c-AxG3RpCOzJqKjuoB-47" value="17" style="edgeStyle=orthogonalEdgeStyle;rounded=0;orthogonalLoop=1;jettySize=auto;html=1;entryX=0.5;entryY=0;entryDx=0;entryDy=0;" edge="1" parent="1" source="y1c-AxG3RpCOzJqKjuoB-45" target="y1c-AxG3RpCOzJqKjuoB-46">
          <mxGeometry relative="1" as="geometry" />
        </mxCell>
        <mxCell id="y1c-AxG3RpCOzJqKjuoB-45" value="Умножение&lt;br&gt;generate(int source = 3*2,&lt;br&gt;target = 5,&lt;br&gt;&amp;nbsp;path = k2 к1 к2&amp;nbsp;" style="rounded=0;whiteSpace=wrap;html=1;" vertex="1" parent="1">
          <mxGeometry x="880" y="400" width="160" height="70" as="geometry" />
        </mxCell>
        <mxCell id="y1c-AxG3RpCOzJqKjuoB-54" value="18" style="edgeStyle=orthogonalEdgeStyle;rounded=0;orthogonalLoop=1;jettySize=auto;html=1;entryX=0;entryY=0.5;entryDx=0;entryDy=0;" edge="1" parent="1" source="y1c-AxG3RpCOzJqKjuoB-46" target="y1c-AxG3RpCOzJqKjuoB-50">
          <mxGeometry relative="1" as="geometry">
            <Array as="points">
              <mxPoint x="1050" y="710" />
              <mxPoint x="1050" y="305" />
            </Array>
          </mxGeometry>
        </mxCell>
        <mxCell id="y1c-AxG3RpCOzJqKjuoB-46" value="6&amp;gt;5&lt;br&gt;return" style="ellipse;whiteSpace=wrap;html=1;" vertex="1" parent="1">
          <mxGeometry x="900" y="670" width="120" height="80" as="geometry" />
        </mxCell>
        <mxCell id="y1c-AxG3RpCOzJqKjuoB-49" value="19" style="edgeStyle=orthogonalEdgeStyle;rounded=0;orthogonalLoop=1;jettySize=auto;html=1;" edge="1" parent="1" source="y1c-AxG3RpCOzJqKjuoB-50" target="y1c-AxG3RpCOzJqKjuoB-52">
          <mxGeometry relative="1" as="geometry" />
        </mxCell>
        <mxCell id="y1c-AxG3RpCOzJqKjuoB-50" value="Умножение&lt;br&gt;generate(int source = 2*2,&lt;br&gt;target = 5,&lt;br&gt;&amp;nbsp;path = k2 к2&amp;nbsp;" style="rounded=0;whiteSpace=wrap;html=1;" vertex="1" parent="1">
          <mxGeometry x="1060" y="270" width="160" height="70" as="geometry" />
        </mxCell>
        <mxCell id="y1c-AxG3RpCOzJqKjuoB-51" value="20" style="edgeStyle=orthogonalEdgeStyle;rounded=0;orthogonalLoop=1;jettySize=auto;html=1;" edge="1" parent="1" source="y1c-AxG3RpCOzJqKjuoB-52" target="y1c-AxG3RpCOzJqKjuoB-53">
          <mxGeometry relative="1" as="geometry" />
        </mxCell>
        <mxCell id="y1c-AxG3RpCOzJqKjuoB-52" value="Суммирование&lt;br&gt;generate(int source = 4+1,&lt;br&gt;target = 5,&lt;br&gt;&amp;nbsp;path = k2 к2 к1" style="rounded=0;whiteSpace=wrap;html=1;" vertex="1" parent="1">
          <mxGeometry x="1060" y="400" width="160" height="70" as="geometry" />
        </mxCell>
        <mxCell id="y1c-AxG3RpCOzJqKjuoB-53" value="System.out.printn&lt;br&gt;(k2 к2 k1)&lt;br&gt;return" style="ellipse;whiteSpace=wrap;html=1;" vertex="1" parent="1">
          <mxGeometry x="1080" y="670" width="120" height="80" as="geometry" />
        </mxCell>
      </root>
    </mxGraphModel>
  </diagram>
</mxfile>
